<svg width="337" height="48" viewBox="0 0 337 48" fill="none" xmlns="http://www.w3.org/2000/svg">
<g filter="url(#filter0_d_122_74)">
<path d="M9.44141 15V4.25781H5.14453V2.10938H15.8867V4.25781H11.5898V15H9.44141ZM30.9258 15H28.7773V8.55469H20.1836V15H18.0352V2.10938H20.1836V6.40625H28.7773V2.10938H30.9258V15ZM33.0742 15V12.8516H37.3711V4.25781H33.0742V2.10938H43.8164V4.25781H39.5195V12.8516H43.8164V15H33.0742ZM48.1133 3.7207V2.10938H56.707V4.25781H48.6504L48.1133 4.79492V5.86914L48.6504 6.40625H56.707V8.01758L57.2441 8.55469H58.8555V12.8516H57.2441L56.707 13.3887V15H48.1133V13.3887L47.5762 12.8516H45.9648V10.7031H48.1133V12.3145L48.6504 12.8516H56.1699L56.707 12.3145V9.0918L56.1699 8.55469H48.1133V6.94336L47.5762 6.40625H45.9648V4.25781H47.5762L48.1133 3.7207ZM71.7461 3.7207V2.10938H80.3398V3.7207L80.877 4.25781H82.4883V15H80.3398V8.55469H73.8945V6.40625H80.3398V4.79492L79.8027 4.25781H72.2832L71.7461 4.79492V15H69.5977V4.25781H71.209L71.7461 3.7207ZM94.8418 4.25781H86.7852V15H84.6367V2.10938H95.3789V3.7207L95.916 4.25781H97.5273V6.40625H95.916L95.3789 6.94336V8.55469H88.9336V6.40625H94.8418L95.3789 5.86914V4.79492L94.8418 4.25781ZM109.881 4.25781H101.824V15H99.6758V2.10938H110.418V3.7207L110.955 4.25781H112.566V6.40625H110.955L110.418 6.94336V8.55469H103.973V6.40625H109.881L110.418 5.86914V4.79492L109.881 4.25781ZM123.309 15V12.8516H127.605V4.25781H123.309V2.10938H134.051V4.25781H129.754V12.8516H134.051V15H123.309ZM138.348 3.7207V2.10938H146.941V4.25781H138.885L138.348 4.79492V5.86914L138.885 6.40625H146.941V8.01758L147.479 8.55469H149.09V12.8516H147.479L146.941 13.3887V15H138.348V13.3887L137.811 12.8516H136.199V10.7031H138.348V12.3145L138.885 12.8516H146.404L146.941 12.3145V9.0918L146.404 8.55469H138.348V6.94336L137.811 6.40625H136.199V4.25781H137.811L138.348 3.7207ZM171.111 12.8516L170.574 13.3887V15H159.832V2.10938H170.574V3.7207L171.111 4.25781H172.723V12.8516H171.111ZM170.574 12.3145V4.79492L170.037 4.25781H161.98V12.8516H170.037L170.574 12.3145ZM174.871 2.10938H187.762V4.25781H177.02V12.8516H187.762V15H174.871V2.10938ZM179.168 6.40625H183.465V8.55469H179.168V6.40625ZM200.652 11.2402V12.8516H199.041L198.504 13.3887V15H194.207V13.3887L193.67 12.8516H192.059V11.2402L191.521 10.7031H189.91V2.10938H192.059V10.166L192.596 10.7031H194.207V12.3145L194.744 12.8516H197.967L198.504 12.3145V10.7031H200.115L200.652 10.166V2.10938H202.801V10.7031H201.189L200.652 11.2402ZM204.949 2.10938H217.84V4.25781H207.098V12.8516H217.84V15H204.949V2.10938ZM209.246 6.40625H213.543V8.55469H209.246V6.40625ZM219.988 2.10938H222.137V12.8516H230.73V15H219.988V2.10938ZM244.158 12.8516L243.621 13.3887V15H235.027V13.3887L234.49 12.8516H232.879V4.25781H234.49L235.027 3.7207V2.10938H243.621V3.7207L244.158 4.25781H245.77V12.8516H244.158ZM243.621 12.3145V4.79492L243.084 4.25781H235.564L235.027 4.79492V12.3145L235.564 12.8516H243.084L243.621 12.3145ZM258.123 4.25781H250.066V15H247.918V2.10938H258.66V3.7207L259.197 4.25781H260.809V6.40625H259.197L258.66 6.94336V8.55469H252.215V6.40625H258.123L258.66 5.86914V4.79492L258.123 4.25781ZM262.957 2.10938H275.848V4.25781H265.105V12.8516H275.848V15H262.957V2.10938ZM267.254 6.40625H271.551V8.55469H267.254V6.40625ZM289.275 12.8516L288.738 13.3887V15H277.996V2.10938H288.738V3.7207L289.275 4.25781H290.887V12.8516H289.275ZM288.738 12.3145V4.79492L288.201 4.25781H280.145V12.8516H288.201L288.738 12.3145ZM303.777 12.8516H311.834L312.371 12.3145V9.0918L311.834 8.55469H303.777V12.8516ZM311.834 4.25781H303.777V6.40625H311.834L312.371 5.86914V4.79492L311.834 4.25781ZM312.371 6.94336V8.01758L312.908 8.55469H314.52V12.8516H312.908L312.371 13.3887V15H301.629V2.10938H312.371V3.7207L312.908 4.25781H314.52V6.40625H312.908L312.371 6.94336ZM318.279 4.25781H316.668V2.10938H318.816V3.7207L319.354 4.25781H320.965V5.86914L321.502 6.40625H322.576L323.113 5.86914V4.25781H324.725L325.262 3.7207V2.10938H327.41V4.25781H325.799L325.262 4.79492V6.40625H323.65L323.113 6.94336V15H320.965V6.94336L320.428 6.40625H318.816V4.79492L318.279 4.25781ZM329.559 12.8516H331.707V15H329.559V12.8516ZM329.559 6.40625H331.707V8.55469H329.559V6.40625ZM67.5713 24.793H58.416V37H55.9746V22.3516H68.1816V24.1826L68.792 24.793H70.623V27.2344H68.792L68.1816 27.8447V29.0654L68.792 29.6758H70.623V37H68.1816V30.2861L67.5713 29.6758H60.8574V27.2344H67.5713L68.1816 26.624V25.4033L67.5713 24.793ZM85.2715 35.1689V37H75.5059V35.1689L74.8955 34.5586H73.0645V22.3516H75.5059V33.9482L76.1162 34.5586H84.6611L85.2715 33.9482V22.3516H87.7129V34.5586H85.8818L85.2715 35.1689ZM102.361 22.3516V24.1826L102.972 24.793H104.803V37H102.361V25.4033L101.751 24.793H92.5957V37H90.1543V22.3516H102.361ZM119.451 22.3516V24.1826L120.062 24.793H121.893V37H119.451V25.4033L118.841 24.793H109.686V37H107.244V22.3516H119.451ZM124.334 22.3516H138.982V24.793H126.775V34.5586H138.982V37H124.334V22.3516ZM129.217 27.2344H134.1V29.6758H129.217V27.2344ZM153.021 24.793H143.865V37H141.424V22.3516H153.631V24.1826L154.241 24.793H156.072V27.2344H154.241L153.631 27.8447V29.0654L154.241 29.6758H156.072V37H153.631V30.2861L153.021 29.6758H146.307V27.2344H153.021L153.631 26.624V25.4033L153.021 24.793ZM160.955 24.1826V22.3516H170.721V24.793H161.565L160.955 25.4033V26.624L161.565 27.2344H170.721V29.0654L171.331 29.6758H173.162V34.5586H171.331L170.721 35.1689V37H160.955V35.1689L160.345 34.5586H158.514V32.1172H160.955V33.9482L161.565 34.5586H170.11L170.721 33.9482V30.2861L170.11 29.6758H160.955V27.8447L160.345 27.2344H158.514V24.793H160.345L160.955 24.1826ZM178.045 32.1172H180.486V37H178.655L178.045 37.6104V39.4414H175.604V37H177.435L178.045 36.3896V32.1172ZM201.849 29.6758L202.459 29.0654V27.8447L201.849 27.2344H192.693V24.793H202.459V26.624L203.069 27.2344H204.9V29.6758H203.069L202.459 30.2861V32.1172H195.745L195.135 32.7275V34.5586H204.9V37H192.693V32.1172H194.524L195.135 31.5068V29.6758H201.849ZM217.718 34.5586L217.107 35.1689V37H209.783V35.1689L209.173 34.5586H207.342V27.2344H209.173L209.783 26.624V24.793H217.107V26.624L217.718 27.2344H219.549V34.5586H217.718ZM217.107 33.9482V27.8447L216.497 27.2344H210.394L209.783 27.8447V33.9482L210.394 34.5586H216.497L217.107 33.9482ZM231.146 29.6758L231.756 29.0654V27.8447L231.146 27.2344H221.99V24.793H231.756V26.624L232.366 27.2344H234.197V29.6758H232.366L231.756 30.2861V32.1172H225.042L224.432 32.7275V34.5586H234.197V37H221.99V32.1172H223.821L224.432 31.5068V29.6758H231.146ZM246.404 31.5068L247.015 32.1172H248.846V34.5586H247.015L246.404 35.1689V37H236.639V34.5586H245.794L246.404 33.9482V32.7275L245.794 32.1172H239.08V29.6758H243.963V27.2344H236.639V24.793H248.846V27.2344H246.404V31.5068ZM251.287 34.5586H253.729V37H251.287V34.5586ZM256.17 27.2344H268.377V29.6758H256.17V27.2344ZM279.974 29.6758L280.584 29.0654V27.8447L279.974 27.2344H270.818V24.793H280.584V26.624L281.194 27.2344H283.025V29.6758H281.194L280.584 30.2861V32.1172H273.87L273.26 32.7275V34.5586H283.025V37H270.818V32.1172H272.649L273.26 31.5068V29.6758H279.974ZM295.843 34.5586L295.232 35.1689V37H287.908V35.1689L287.298 34.5586H285.467V27.2344H287.298L287.908 26.624V24.793H295.232V26.624L295.843 27.2344H297.674V34.5586H295.843ZM295.232 33.9482V27.8447L294.622 27.2344H288.519L287.908 27.8447V33.9482L288.519 34.5586H294.622L295.232 33.9482ZM309.271 29.6758L309.881 29.0654V27.8447L309.271 27.2344H300.115V24.793H309.881V26.624L310.491 27.2344H312.322V29.6758H310.491L309.881 30.2861V32.1172H303.167L302.557 32.7275V34.5586H312.322V37H300.115V32.1172H301.946L302.557 31.5068V29.6758H309.271ZM317.205 30.2861V32.1172H324.529V34.5586H322.088V37H319.646V34.5586H314.764V29.6758H316.595L317.205 29.0654V27.2344H319.036L319.646 26.624V24.793H322.088V27.2344H320.257L319.646 27.8447V29.6758H317.815L317.205 30.2861ZM326.971 34.5586H329.412V37H326.971V34.5586Z" fill="white"/>
<path d="M19.3535 22.3516V24.1826L19.9639 24.793H21.7949V37H19.3535V25.4033L18.7432 24.793H9.58789V37H7.14648V22.3516H19.3535ZM24.2363 22.3516H38.8848V24.793H26.6777V34.5586H38.8848V37H24.2363V22.3516ZM29.1191 27.2344H34.002V29.6758H29.1191V27.2344ZM46.209 37V24.793H41.3262V22.3516H53.5332V24.793H48.6504V37H46.209Z" fill="#EF3F40"/>
</g>
<defs>
<filter id="filter0_d_122_74" x="0.144531" y="0.109375" width="336.562" height="47.332" filterUnits="userSpaceOnUse" color-interpolation-filters="sRGB">
<feFlood flood-opacity="0" result="BackgroundImageFix"/>
<feColorMatrix in="SourceAlpha" type="matrix" values="0 0 0 0 0 0 0 0 0 0 0 0 0 0 0 0 0 0 127 0" result="hardAlpha"/>
<feOffset dy="3"/>
<feGaussianBlur stdDeviation="2.5"/>
<feComposite in2="hardAlpha" operator="out"/>
<feColorMatrix type="matrix" values="0 0 0 0 0 0 0 0 0 0 0 0 0 0 0 0 0 0 0.39 0"/>
<feBlend mode="normal" in2="BackgroundImageFix" result="effect1_dropShadow_122_74"/>
<feBlend mode="normal" in="SourceGraphic" in2="effect1_dropShadow_122_74" result="shape"/>
</filter>
</defs>
</svg>
