<svg width="325" height="37" viewBox="0 0 325 37" fill="none" xmlns="http://www.w3.org/2000/svg">
<path d="M31.5308 6.9707H36.0352V12.9766H30.0293V8.47217L28.5278 6.9707H7.50732L6.00586 8.47217V29.4927L7.50732 30.9941H36.0352V37H6.00586V32.4956L4.50439 30.9941H0V6.9707H4.50439L6.00586 5.46924V0.964844H30.0293V5.46924L31.5308 6.9707Z" fill="#EF3F40"/>
<path d="M70.5688 6.9707H48.0469V37H42.041V0.964844H72.0703V5.46924L73.5718 6.9707H78.0762V12.9766H73.5718L72.0703 14.478V17.481L73.5718 18.9824H78.0762V37H72.0703V20.4839L70.5688 18.9824H54.0527V12.9766H70.5688L72.0703 11.4751V8.47217L70.5688 6.9707Z" fill="#EF3F40"/>
<path d="M84.082 0.964844H120.117V6.9707H90.0879V30.9941H120.117V37H84.082V0.964844ZM96.0938 12.9766H108.105V18.9824H96.0938V12.9766Z" fill="#EF3F40"/>
<path d="M132.129 5.46924V0.964844H156.152V5.46924L157.654 6.9707H162.158V37H156.152V18.9824H138.135V12.9766H156.152V8.47217L154.651 6.9707H133.63L132.129 8.47217V37H126.123V6.9707H130.627L132.129 5.46924Z" fill="#EF3F40"/>
<path d="M180.176 37V6.9707H168.164V0.964844H198.193V6.9707H186.182V37H180.176Z" fill="#EF3F40"/>
<path d="M235.73 30.9941L234.229 32.4956V37H210.205V32.4956L208.704 30.9941H204.199V6.9707H208.704L210.205 5.46924V0.964844H234.229V5.46924L235.73 6.9707H240.234V30.9941H235.73ZM234.229 29.4927V8.47217L232.727 6.9707H211.707L210.205 8.47217V29.4927L211.707 30.9941H232.727L234.229 29.4927Z" fill="#EF3F40"/>
<path d="M274.768 6.9707H252.246V37H246.24V0.964844H276.27V5.46924L277.771 6.9707H282.275V12.9766H277.771L276.27 14.478V17.481L277.771 18.9824H282.275V37H276.27V20.4839L274.768 18.9824H258.252V12.9766H274.768L276.27 11.4751V8.47217L274.768 6.9707Z" fill="#EF3F40"/>
<path d="M294.287 5.46924V0.964844H318.311V6.9707H295.789L294.287 8.47217V11.4751L295.789 12.9766H318.311V17.481L319.812 18.9824H324.316V30.9941H319.812L318.311 32.4956V37H294.287V32.4956L292.786 30.9941H288.281V24.9883H294.287V29.4927L295.789 30.9941H316.809L318.311 29.4927V20.4839L316.809 18.9824H294.287V14.478L292.786 12.9766H288.281V6.9707H292.786L294.287 5.46924Z" fill="#EF3F40"/>
</svg>
