<svg width="164" height="26" viewBox="0 0 164 26" fill="none" xmlns="http://www.w3.org/2000/svg">
<g id="Logo White 1" clip-path="url(#clip0_19_38)">
<path id="Vector" d="M27.1732 25.6376V14.0398H40.7419C41.7106 14.0271 42.6763 14.1521 43.6119 14.4112C44.4601 14.659 45.133 15.0728 45.6305 15.6526C46.1277 16.2325 46.3764 17.0238 46.3765 18.0265C46.3765 18.6911 46.2595 19.2408 46.0254 19.6756C45.8013 20.1 45.467 20.4514 45.06 20.6904C44.6224 20.9426 44.1482 21.1201 43.6558 21.2159C43.1117 21.3268 42.56 21.3935 42.0057 21.4152L40.7244 21.1615C42.1168 21.1737 43.1905 21.2341 43.9454 21.3428C44.7001 21.4515 45.2267 21.6478 45.5251 21.9317C45.8235 22.2157 45.9727 22.6234 45.9728 23.1549V25.6376H41.5844V23.6986C41.5844 23.3361 41.5172 23.0613 41.3826 22.874C41.2479 22.6869 40.9554 22.557 40.5049 22.4844C40.0543 22.4119 39.3609 22.3757 38.4249 22.3757H31.5615V25.6376H27.1732ZM31.5615 19.3494H40.7419C41.0469 19.3592 41.35 19.2972 41.6283 19.1682C41.868 19.0475 41.988 18.818 41.9881 18.4795C41.9881 18.1655 41.8682 17.9511 41.6283 17.8362C41.3484 17.7134 41.046 17.6546 40.7419 17.6641H31.5615L31.5615 19.3494Z" fill="white"/>
<path id="Vector_2" d="M62.5956 19.0232V14.0397H66.9839V19.8386C66.9839 20.8656 66.7996 21.7385 66.431 22.4572C66.0676 23.1701 65.5402 23.7799 64.8951 24.2331C64.2017 24.7165 63.437 25.0806 62.6307 25.3114C61.7323 25.5737 60.8129 25.7526 59.8836 25.846C58.895 25.9491 57.902 26.0006 56.9083 26C55.8433 26 54.8135 25.9486 53.8189 25.846C52.8836 25.7548 51.9582 25.5759 51.0543 25.3114C50.2603 25.0844 49.5095 24.7198 48.8339 24.2331C48.2071 23.7744 47.698 23.1648 47.3506 22.4572C46.9935 21.7386 46.815 20.8657 46.8152 19.8386V14.0397H51.2035V19.0232C51.2035 19.9899 51.4317 20.7268 51.8881 21.234C52.3445 21.7414 52.9969 22.0887 53.8453 22.276C54.6936 22.4634 55.7146 22.5571 56.9083 22.5569C57.9214 22.571 58.9332 22.4769 59.9275 22.276C60.7816 22.0888 61.4399 21.7415 61.9023 21.234C62.3644 20.7266 62.5955 19.9896 62.5956 19.0232Z" fill="white"/>
<path id="Vector_3" d="M85.1162 22.0857L83.4838 23.0462V14.0397H87.872V25.6376H83.4838L70.2661 17.7365L71.8985 16.758V25.6376H67.5103V14.0397H71.8985L85.1162 22.0857Z" fill="white"/>
<path id="Vector_4" d="M106.004 22.0857L104.372 23.0462V14.0397H108.76V25.6376H104.372L91.1543 17.7365L92.7868 16.758V25.6376H88.3985V14.0397H92.7868L106.004 22.0857Z" fill="white"/>
<path id="Vector_5" d="M113.622 20.7447V22.1945H126.963V25.6376H109.234V14.0397H126.928V17.4828H113.622V18.9326H124.505V20.7447H113.622Z" fill="white"/>
<path id="Vector_6" d="M127.437 25.6376V14.0398H141.005C141.974 14.0271 142.94 14.1521 143.875 14.4112C144.724 14.659 145.396 15.0728 145.894 15.6526C146.391 16.2325 146.64 17.0238 146.64 18.0265C146.64 18.6911 146.523 19.2408 146.289 19.6756C146.065 20.1 145.73 20.4514 145.323 20.6904C144.886 20.9426 144.412 21.1201 143.919 21.2159C143.375 21.3268 142.823 21.3935 142.269 21.4152L140.988 21.1615C142.38 21.1737 143.454 21.2341 144.209 21.3428C144.964 21.4515 145.49 21.6478 145.789 21.9317C146.087 22.2157 146.236 22.6234 146.236 23.1549V25.6376H141.848V23.6986C141.848 23.3361 141.781 23.0613 141.646 22.874C141.511 22.6869 141.219 22.557 140.768 22.4844C140.318 22.4119 139.624 22.3757 138.688 22.3757H131.825V25.6376H127.437ZM131.825 19.3494H141.005C141.31 19.3592 141.613 19.2972 141.892 19.1682C142.131 19.0475 142.251 18.818 142.252 18.4795C142.252 18.1655 142.132 17.9511 141.892 17.8362C141.612 17.7134 141.309 17.6546 141.005 17.6641H131.825V19.3494Z" fill="white"/>
<path id="Vector_7" d="M146.78 21.379H151.572C151.654 21.6327 151.894 21.8471 152.292 22.0224C152.808 22.2279 153.348 22.3619 153.898 22.421C154.676 22.5179 155.458 22.5633 156.242 22.5569C157.119 22.5569 157.812 22.5297 158.322 22.4753C158.831 22.421 159.19 22.3243 159.401 22.1854C159.498 22.1282 159.579 22.0451 159.635 21.9447C159.69 21.8442 159.719 21.7302 159.717 21.6146C159.717 21.3852 159.547 21.207 159.208 21.08C158.868 20.9532 158.266 20.8656 157.4 20.8172C156.534 20.7691 155.317 20.7449 153.749 20.7448C152.737 20.7543 151.726 20.6968 150.721 20.5726C149.872 20.4579 149.176 20.2767 148.632 20.029C148.088 19.7815 147.687 19.4674 147.43 19.0866C147.166 18.6834 147.031 18.2049 147.044 17.7184C147.044 16.8005 147.345 16.0424 147.948 15.4442C148.55 14.8462 149.463 14.3992 150.686 14.1032C151.909 13.8073 153.439 13.6593 155.276 13.6592C157.967 13.6592 160.024 14.0609 161.446 14.8643C162.868 15.6679 163.579 16.8246 163.579 18.3346H159.032C158.974 17.9359 158.611 17.6308 157.944 17.4194C157.277 17.2082 156.329 17.1025 155.101 17.1023C153.883 17.1023 152.979 17.1748 152.389 17.3198C151.798 17.4647 151.502 17.7124 151.502 18.0627C151.502 18.1513 151.524 18.2383 151.568 18.3148C151.611 18.3913 151.673 18.4544 151.748 18.4977C151.912 18.6064 152.195 18.694 152.599 18.7604C153.167 18.8407 153.738 18.8861 154.311 18.8964C155.048 18.9207 155.984 18.9328 157.119 18.9326C158.187 18.9211 159.254 18.9846 160.314 19.1229C161.192 19.2497 161.902 19.44 162.447 19.6937C162.991 19.9474 163.386 20.2706 163.631 20.6632C163.883 21.078 164.011 21.5601 164 22.0495C164 22.9678 163.719 23.7168 163.158 24.2966C162.596 24.8765 161.706 25.3054 160.489 25.5832C159.272 25.861 157.681 25.9999 155.715 26C154.691 26.0058 153.667 25.9392 152.652 25.8007C151.807 25.6884 150.975 25.4911 150.168 25.2117C149.511 24.988 148.89 24.6643 148.325 24.2513C147.858 23.9114 147.466 23.4728 147.175 22.9646C146.91 22.4813 146.774 21.9343 146.78 21.379Z" fill="white"/>
<path id="Vector_8" d="M40.8057 5.39162L31.9486 0H27.1732V11.5694H32.5371V6.27292L41.3976 11.5694H46.1697V0H40.8057V5.39162ZM41.6151 0.835608H45.3603V10.7338H45.36V10.7341H41.6148L31.7277 4.82394V10.7338H31.7274V10.7341H27.9822V0.835863H27.9826V0.835608H31.7277L41.6148 6.85421V0.835863H41.6151V0.835608Z" fill="#EF3F40"/>
<path id="Vector_9" d="M61.3003 4.60971H63.1271V0H46.6481V11.5694H63.3976V6.95966H61.3003V4.60971ZM62.5882 7.79526V10.7338H62.5879V10.7341H47.4572V0.835863H47.4575V0.835608H62.5583V3.77411H62.558V3.77436H51.2027V5.0114H60.4909V6.55802H60.4906V6.55828H51.2027V7.79526L62.5882 7.79526Z" fill="#EF3F40"/>
<path id="Vector_10" d="M63.5701 0V4.60971H69.2469V11.5694H74.6109V4.60971H80.5285V0H63.5701ZM79.7191 3.77411H79.7188V3.77436H73.8015V10.7338H73.8012V10.7341H70.056V3.77436H64.1386V0.835863H64.1389V0.835608H79.7191V3.77411Z" fill="#EF3F40"/>
<path id="Vector_11" d="M0 23.4751C0.406676 21.0101 0.707335 18.4721 0.901976 15.8612L3.18355 16.0529C3.04313 18.6809 2.74184 21.2971 2.28148 23.8859L0 23.4751ZM22.5499 24.8171C22.0014 24.8171 20.8695 24.7715 19.1541 24.6802L18.9949 21.6675C20.3566 21.759 21.1349 21.8047 21.3296 21.8044C21.5949 21.8044 21.754 21.7588 21.8071 21.6675C21.8423 21.6127 21.8599 21.3205 21.8601 20.791V15.3134H17.6419V17.2305C17.6419 17.7603 17.7038 18.0616 17.8277 18.1344C17.9512 18.2075 18.4199 18.244 19.2337 18.2439C19.6756 18.2439 20.3123 18.1983 21.1438 18.107V21.0375C19.7817 21.1291 18.7382 21.1748 18.0134 21.1745C16.5982 21.1745 15.6873 21.0193 15.2809 20.7088C14.8564 20.3802 14.6442 19.7138 14.6441 18.7095V15.3134H13.1851V24.8993H10.1607V14.8478L8.67507 15.1765C8.65729 15.0853 8.62633 14.9438 8.5822 14.7519C8.53783 14.5602 8.50687 14.4096 8.48932 14.3L6.71193 14.4369V25.1731H3.55496V14.6834L0.371403 14.93L0.265288 11.7529L2.44065 11.616L3.07745 10.5478C1.91008 8.81337 0.919632 7.36179 0.106114 6.19311L1.53867 2.90653C1.64479 3.05286 1.79513 3.26739 1.98971 3.55012C2.18416 3.83343 2.32564 4.04798 2.41417 4.19376C3.08614 2.71482 3.65208 1.32715 4.11202 0.0307617L6.84453 1.01672C5.99561 3.06188 5.11132 5.01558 4.19165 6.87781C4.24471 6.96941 4.33314 7.11092 4.45694 7.30234C4.58045 7.49406 4.6777 7.64468 4.74871 7.75422C5.61512 6.2205 6.46407 4.61374 7.29557 2.93392L9.81586 4.11159C8.98433 5.73691 8.21498 7.17022 7.50781 8.41152L9.28529 7.91855C9.58575 8.97769 9.87755 10.0915 10.1607 11.2599V0.79762H24.9905V21.2566C24.9905 22.644 24.8137 23.5934 24.46 24.105C24.1238 24.5796 23.4871 24.817 22.5499 24.8171ZM7.79958 11.2599C7.67568 10.749 7.47231 9.98211 7.18946 8.95933C6.74712 9.70818 6.26074 10.5207 5.73033 11.3968L7.79958 11.2599ZM9.76281 22.3795L7.53429 22.5986C7.46344 20.5903 7.31313 18.3719 7.08335 15.9433L9.23223 15.6147C9.47963 18.0248 9.6565 20.2798 9.76281 22.3795ZM13.6891 4.87845L16.0237 4.0842C16.3594 5.2529 16.6866 6.56753 17.0052 8.0281H17.9338C18.3226 6.73189 18.6586 5.37162 18.9419 3.94727L21.3296 4.68674C21.0817 5.89185 20.8075 7.00564 20.5071 8.0281H21.8601V3.72816H13.1851V8.0281H14.5646C14.3167 7.04214 14.0248 5.99225 13.6891 4.87845ZM13.1851 12.5746H16.0237V10.8491H13.1851V12.5746ZM21.8601 10.8491H19.0215V12.5746H21.8601V10.8491Z" fill="#EF3F40"/>
</g>
<defs>
<clipPath id="clip0_19_38">
<rect width="164" height="26" fill="white"/>
</clipPath>
</defs>
</svg>
