<svg width="327" height="39" viewBox="0 0 327 39" fill="none" xmlns="http://www.w3.org/2000/svg">
<path d="M6.28846 5.10096V0.384613H31.4423V6.67307H7.86058L6.28846 8.24519V11.3894L7.86058 12.9615H31.4423V17.6779L33.0144 19.25H37.7308V31.8269H33.0144L31.4423 33.399V38.1154H6.28846V33.399L4.71635 31.8269H0V25.5385H6.28846V30.2548L7.86058 31.8269H29.8702L31.4423 30.2548V20.8221L29.8702 19.25H6.28846V14.5337L4.71635 12.9615H0V6.67307H4.71635L6.28846 5.10096Z" fill="#EF3F40"/>
<path d="M44.0192 0.384613H81.75V6.67307H50.3077V31.8269H81.75V38.1154H44.0192V0.384613ZM56.5962 12.9615H69.1731V19.25H56.5962V12.9615Z" fill="#EF3F40"/>
<path d="M100.615 38.1154V6.67307H88.0385V0.384613H119.481V6.67307H106.904V38.1154H100.615Z" fill="#EF3F40"/>
<path d="M138.346 38.1154V6.67307H125.769V0.384613H157.212V6.67307H144.635V38.1154H138.346Z" fill="#EF3F40"/>
<path d="M163.5 38.1154V31.8269H176.077V6.67307H163.5V0.384613H194.942V6.67307H182.365V31.8269H194.942V38.1154H163.5Z" fill="#EF3F40"/>
<path d="M232.673 0.384613V5.10096L234.245 6.67307H238.962V38.1154H232.673V8.24519L231.101 6.67307H207.519V38.1154H201.231V0.384613H232.673Z" fill="#EF3F40"/>
<path d="M276.692 33.399V38.1154H251.538V33.399L249.966 31.8269H245.25V6.67307H249.966L251.538 5.10096V0.384613H276.692V6.67307H253.111L251.538 8.24519V30.2548L253.111 31.8269H275.12L276.692 30.2548V19.25H264.115V12.9615H282.981V31.8269H278.264L276.692 33.399Z" fill="#EF3F40"/>
<path d="M295.558 5.10096V0.384613H320.712V6.67307H297.13L295.558 8.24519V11.3894L297.13 12.9615H320.712V17.6779L322.284 19.25H327V31.8269H322.284L320.712 33.399V38.1154H295.558V33.399L293.986 31.8269H289.269V25.5385H295.558V30.2548L297.13 31.8269H319.139L320.712 30.2548V20.8221L319.139 19.25H295.558V14.5337L293.986 12.9615H289.269V6.67307H293.986L295.558 5.10096Z" fill="#EF3F40"/>
</svg>
