<svg width="327" height="205" viewBox="0 0 327 205" fill="none" xmlns="http://www.w3.org/2000/svg">
<path d="M41.9231 35.4167V41.6667H35.6346L33.5385 43.75V50H16.7692V43.75L14.6731 41.6667H8.38461V35.4167L6.28846 33.3333H0V0H8.38461V31.25L10.4808 33.3333H16.7692V39.5833L18.8654 41.6667H31.4423L33.5385 39.5833V33.3333H39.8269L41.9231 31.25V0H50.3077V33.3333H44.0192L41.9231 35.4167Z" fill="white"/>
<path d="M58.6923 50V41.6667H75.4615V8.33333H58.6923V0H100.615V8.33333H83.8462V41.6667H100.615V50H58.6923Z" fill="white"/>
<path d="M117.385 6.25V0H150.923V8.33333H119.481L117.385 10.4167V14.5833L119.481 16.6667H150.923V22.9167L153.019 25H159.308V41.6667H153.019L150.923 43.75V50H117.385V43.75L115.288 41.6667H109V33.3333H117.385V39.5833L119.481 41.6667H148.827L150.923 39.5833V27.0833L148.827 25H117.385V18.75L115.288 16.6667H109V8.33333H115.288L117.385 6.25Z" fill="white"/>
<path d="M167.692 50V41.6667H184.462V8.33333H167.692V0H209.615V8.33333H192.846V41.6667H209.615V50H167.692Z" fill="white"/>
<path d="M262.019 41.6667L259.923 43.75V50H226.385V43.75L224.288 41.6667H218V8.33333H224.288L226.385 6.25V0H259.923V6.25L262.019 8.33333H268.308V41.6667H262.019ZM259.923 39.5833V10.4167L257.827 8.33333H228.481L226.385 10.4167V39.5833L228.481 41.6667H257.827L259.923 39.5833Z" fill="white"/>
<path d="M318.615 0V6.25L320.712 8.33333H327V50H318.615V10.4167L316.519 8.33333H285.077V50H276.692V0H318.615Z" fill="white"/>
<path d="M85.8375 188.333L81.75 192.5V205H16.35V192.5L12.2625 188.333H0V121.667H12.2625L16.35 117.5V105H81.75V117.5L85.8375 121.667H98.1V188.333H85.8375ZM81.75 184.167V125.833L77.6625 121.667H20.4375L16.35 125.833V184.167L20.4375 188.333H77.6625L81.75 184.167Z" fill="#EF3F40"/>
<path d="M196.2 105V117.5L200.288 121.667H212.55V205H196.2V125.833L192.113 121.667H130.8V205H114.45V105H196.2Z" fill="#EF3F40"/>
<path d="M228.9 105H327V121.667H245.25V188.333H327V205H228.9V105ZM261.6 138.333H294.3V155H261.6V138.333Z" fill="#EF3F40"/>
</svg>
