<svg width="50" height="50" viewBox="0 0 50 50" fill="none" xmlns="http://www.w3.org/2000/svg">
<path d="M49.9598 38.2846C49.3096 34.1005 45.6253 31.3808 41.2907 29.7071C36.9562 28.0335 31.1046 27.1967 25.0363 27.1967C18.9679 27.1967 13.3331 28.0335 8.7818 29.7071C4.44728 31.3808 0.979659 34.1005 0.112754 38.2846C-0.320699 40.5858 0.546206 42.4687 1.84656 43.9331C3.14692 45.3975 5.31418 46.6528 7.48144 47.4896C12.0327 49.1632 18.3178 50 24.8195 50C31.3213 50 37.6064 49.1632 42.1576 47.4896C44.3249 46.6528 46.4922 45.3975 47.7925 43.9331C49.5263 42.4687 50.1765 40.5858 49.9598 38.2846ZM44.7584 41.4226C44.1082 42.2594 42.5911 43.0963 40.8573 43.7239C36.9562 45.1883 31.3213 46.0251 25.0363 46.0251C18.7512 46.0251 13.1163 45.1883 9.21525 43.7239C7.26472 42.8871 5.96436 42.0502 5.31418 41.4226C4.44728 40.5858 4.23055 39.749 4.44728 39.1214C4.88073 37.0293 6.61454 35.1465 10.5156 33.682C14.2 32.2176 19.4014 31.3808 25.0363 31.3808C30.8879 31.3808 35.8726 32.2176 39.5569 33.682C43.2413 35.1465 45.1918 37.0293 45.6253 39.1214C45.842 39.749 45.6253 40.5858 44.7584 41.4226Z" fill="#EF3F40"/>
<path d="M25.0362 23.0126C31.538 23.0126 36.9562 17.7824 36.9562 11.5063C36.9562 5.23013 31.538 0 25.0362 0C18.5344 0 13.1163 5.23013 13.1163 11.5063C13.1163 17.7824 18.5344 23.0126 25.0362 23.0126ZM25.0362 4.1841C29.154 4.1841 32.6216 7.53138 32.6216 11.5063C32.6216 15.4812 29.154 18.8285 25.0362 18.8285C20.9184 18.8285 17.4508 15.4812 17.4508 11.5063C17.4508 7.53138 20.9184 4.1841 25.0362 4.1841Z" fill="#EF3F40"/>
</svg>
