<svg width="70" height="68" viewBox="0 0 70 68" fill="none" xmlns="http://www.w3.org/2000/svg">
<path d="M24.4279 51.4416V53.4358H14.2547V43.2654H24.4279V45.2596H31.4095V3.97937C31.4095 -0.00905688 24.2284 -2.20269 19.2416 4.97647C14.0553 5.57474 3.8821 9.76258 6.27579 21.1296C4.28105 22.1267 0.291575 24.9186 0.291575 28.3088H17.4463V22.3261H15.4516V11.9562H25.6247V22.1267H23.63V31.3001C23.63 33.6931 21.6353 34.2914 20.6379 34.2914H0.0921017C-0.705793 39.8752 3.8821 44.6613 6.07631 46.4561C3.68263 58.6208 12.4595 63.0081 17.2468 63.6063C22.8321 71.7826 30.4121 66.5976 31.4095 63.6063C32.4068 60.615 31.4095 51.4416 31.4095 51.4416H24.4279Z" fill="white"/>
<path d="M69.9079 34.2914H49.5616C48.5642 34.2914 46.5695 33.6931 46.5695 31.3001V22.1267H44.5748V11.9562H54.7479V22.1267H52.7532V28.1093H69.9079C69.9079 24.9186 65.9185 22.1267 63.9237 20.9301C66.3174 9.56313 56.1442 5.37529 50.7584 4.77702C45.9711 -2.60156 38.5906 -0.208506 38.5906 3.77992C38.5906 7.76834 38.5906 45.2595 38.5906 45.2595H45.5721V43.2653H55.7453V53.4358H45.5721V51.4416H38.5906C38.5906 51.4416 37.5932 60.615 38.5906 63.6063C39.5879 66.5976 47.1679 71.7826 52.7532 63.6063C57.5406 63.008 66.3174 58.6208 63.9237 46.4561C66.1179 44.6613 70.7058 39.8752 69.9079 34.2914Z" fill="white"/>
</svg>
