<svg width="70" height="70" viewBox="0 0 70 70" fill="none" xmlns="http://www.w3.org/2000/svg">
<path fill-rule="evenodd" clip-rule="evenodd" d="M67.8302 12.4131C66.8577 6.96106 62.5788 2.67733 57.1329 1.89847C40.7953 -0.632823 28.9311 -0.632823 12.3991 1.89847C6.9532 2.67733 2.67431 7.15577 1.89633 12.6078C-0.632109 28.9638 -0.632109 40.8414 1.89633 57.1975C2.67431 62.8442 7.14769 67.128 12.7881 68.1015C29.1256 70.6328 40.9898 70.6328 57.5219 68.1015C62.9678 67.3227 67.2467 63.0389 68.2192 57.5869C70.7476 41.2309 70.5531 29.1586 67.8302 12.4131ZM28.9311 64.0125C28.9311 63.8178 28.9311 63.6231 28.9311 63.4284C28.3477 59.9235 27.5697 54.0821 29.9036 48.8248L31.2651 45.7093L27.9587 44.7357C26.5972 44.3463 24.6523 43.3727 22.9018 42.0097C21.1513 40.6467 19.7899 38.8943 19.2064 36.9471C18.4284 34.0264 18.6229 32.274 19.2064 30.911C19.5954 29.7427 20.1789 28.9638 20.9568 27.9903C21.1513 27.6008 21.5403 27.2114 21.7348 26.822L22.5128 25.6537L22.1238 24.2907C22.1238 24.2907 22.1238 24.2907 22.1238 24.096C22.1238 23.9013 22.1238 23.9013 22.1238 23.7065C22.1238 23.3171 21.9293 22.733 21.9293 22.1488C21.9293 21.37 21.9293 20.3964 21.9293 19.4228C22.3183 19.4228 22.7073 19.4228 23.0963 19.6175C24.4578 20.007 25.8192 20.5911 26.9862 21.5647L28.1532 22.733L29.7091 22.3435C33.21 21.5647 36.5165 21.5647 40.0174 22.3435L41.5733 22.733L42.7403 21.5647C43.7128 20.5911 45.0742 19.8122 46.6302 19.6175C47.0192 19.6175 47.4082 19.4228 47.7972 19.4228C47.7972 20.5911 47.9917 21.37 47.7972 22.1488C47.7972 22.733 47.7972 23.3171 47.6027 23.7065C47.6027 23.9013 47.6027 24.096 47.6027 24.096V24.2907L47.2137 25.6537L47.9917 26.822C48.3807 27.2114 48.5752 27.7955 48.7696 27.9903C49.5476 28.9638 50.1311 29.9374 50.5201 30.911C51.1036 32.274 51.2981 34.0264 50.5201 36.9471C49.9366 38.8943 48.5752 40.6467 46.8247 42.0097C45.0742 43.3727 43.1293 44.3463 41.7678 44.7357L38.4614 45.7093L39.8229 48.8248C42.1568 54.0821 41.1843 59.9235 40.7953 63.4284C40.7953 63.6231 40.7953 63.8178 40.7953 64.0125C36.9054 64.2072 33.0155 64.2072 28.9311 64.0125ZM62.1898 56.6134C61.6063 59.5341 59.4669 61.8707 56.355 62.2601C53.0485 62.8442 49.9366 63.2337 46.8247 63.4284C47.2137 60.3129 47.9917 54.8609 46.4357 49.2142C47.7972 48.63 49.3531 47.6565 50.7146 46.6829C53.0485 44.7357 55.3825 42.2045 56.355 38.6996C57.5219 34.8053 57.3274 31.6898 56.355 29.1586C55.7715 27.4061 54.6045 25.8484 53.8265 24.6801C54.2155 22.733 54.2155 19.8122 53.632 16.1127L53.243 13.9708L50.9091 13.5814C49.5476 13.3866 47.6027 13.3866 45.4632 13.7761C43.7128 14.1655 41.7678 14.9444 40.0174 16.3074C36.711 15.7232 33.21 15.7232 29.9036 16.3074C28.1532 14.9444 26.2082 14.1655 24.4578 13.7761C22.3183 13.3866 20.1789 13.3866 19.0119 13.5814L16.8725 13.9708L16.4835 16.1127C15.9 19.8122 15.9 22.733 16.289 24.6801C15.511 25.8484 14.344 27.4061 13.7605 29.1586C12.7881 31.6898 12.5936 34.8053 13.7605 38.6996C14.733 42.2045 17.0669 44.9305 19.4009 46.6829C20.7624 47.8512 22.1238 48.63 23.6798 49.2142C23.2908 50.7719 22.9018 52.5243 22.9018 54.0821C22.3183 53.6926 21.5403 53.1085 19.7899 50.9666C17.4559 47.8512 14.9275 48.4353 13.955 49.0195C12.9825 49.993 16.8725 50.9666 18.8174 54.8609C19.7899 56.8081 21.3458 57.9764 22.7073 58.3658C22.7073 60.3129 23.0963 62.0654 23.2908 63.4284C20.1789 63.0389 17.0669 62.8442 13.7605 62.2601C10.6486 61.8707 8.31467 59.3394 7.73118 56.2239C5.39724 40.452 5.39724 29.1586 7.73118 13.3866C8.12017 10.2712 10.6486 7.93463 13.566 7.5452C29.3201 5.01391 40.7953 5.01391 56.355 7.5452C59.2724 7.93463 61.6063 10.2712 62.1898 13.3866C64.7182 29.548 64.9127 41.0362 62.1898 56.6134Z" fill="#EF3F40"/>
</svg>
