<svg width="50" height="50" viewBox="0 0 50 50" fill="none" xmlns="http://www.w3.org/2000/svg">
<path fill-rule="evenodd" clip-rule="evenodd" d="M22.2592 0.642622C23.13 0.299068 24.1044 0 25 0C25.8956 0 26.87 0.299068 27.7408 0.642622C28.6628 1.00631 29.6892 1.51104 30.7568 2.09582C32.8952 3.2673 35.3348 4.8353 37.6674 6.4578C40.0042 8.08336 42.2692 9.7884 44.0624 11.2483C44.958 11.9775 45.7504 12.6572 46.3814 13.2436C46.97 13.7906 47.5454 14.3712 47.8892 14.8813C48.6296 15.9797 49.1312 17.623 49.4604 19.3809C49.8022 21.2062 50 23.3934 50 25.7486C50 30.4382 49.2146 35.987 47.044 40.8174C45.7352 43.7302 43.3528 45.7316 40.7262 47.0864C38.1044 48.4388 35.1232 49.2112 32.3752 49.6256C30.8982 49.8484 29.0248 49.9376 27.579 49.9744C26.844 49.9932 26.196 49.9988 25.7312 49.9998C25.4986 50.0004 25.3114 49.9996 25.1812 49.9988L25.0304 49.9976L25 49.9974L24.9696 49.9976L24.8188 49.9988C24.6886 49.9996 24.5014 50.0004 24.2688 49.9998C23.804 49.9988 23.156 49.9932 22.421 49.9744C20.9752 49.9376 19.1019 49.8484 17.6248 49.6256C14.8768 49.2112 11.8955 48.4388 9.27384 47.0864C6.64724 45.7316 4.26482 43.7302 2.95594 40.8174C0.785376 35.987 0 30.4382 0 25.7486C0 23.3934 0.197885 21.2062 0.539654 19.3809C0.868792 17.623 1.37043 15.9797 2.1108 14.8813C2.45462 14.3712 3.02996 13.7906 3.61856 13.2436C4.24952 12.6572 5.04198 11.9775 5.93758 11.2483C7.7309 9.7884 9.99576 8.08336 12.3326 6.4578C14.6651 4.8353 17.1047 3.2673 19.2433 2.09582C20.3108 1.51104 21.3372 1.00631 22.2592 0.642622ZM25.0276 45.9974L25.0356 45.9976L25.0694 45.9978L25.2058 45.999C25.326 45.9996 25.5022 46.0004 25.7224 45.9998C26.1638 45.9988 26.7798 45.9934 27.4772 45.9756C28.3784 45.9526 29.3788 45.9098 30.3006 45.8346C30.3368 45.5894 30.375 45.336 30.4138 45.0776C30.4588 44.7794 30.5046 44.4742 30.5498 44.167C30.7354 42.9024 30.9234 41.5076 31.0344 40.0924C31.2654 37.1518 31.1212 34.5406 30.292 32.9006C30.1982 32.7148 29.9362 32.4136 28.9086 32.2102C27.8762 32.006 26.5734 31.9984 25 31.9984C23.4266 31.9984 22.1238 32.006 21.0914 32.2102C20.0638 32.4136 19.8019 32.7148 19.708 32.9006C18.8788 34.5406 18.7346 37.1518 18.9655 40.0924C19.0766 41.5076 19.2645 42.9024 19.4503 44.167C19.4954 44.4742 19.5413 44.7794 19.5862 45.0776C19.6251 45.336 19.6632 45.5894 19.6994 45.8346C20.6212 45.9098 21.6216 45.9526 22.5228 45.9756C23.2202 45.9934 23.8362 45.9988 24.2776 45.9998C24.4978 46.0004 24.674 45.9996 24.7942 45.999L24.9306 45.9978L24.9644 45.9976L24.9724 45.9974L25 45.997L25.0276 45.9974ZM15.5514 45.1448C15.5322 45.0158 15.5126 44.8836 15.4927 44.7484C15.3031 43.4572 15.0996 41.9566 14.9778 40.4054C14.7429 37.4132 14.7672 33.808 16.1382 31.0958C17.0553 29.2818 18.8154 28.583 20.3152 28.2864C21.7732 27.998 23.4548 27.9982 24.891 27.9984C24.9274 27.9984 24.9638 27.9984 25 27.9984C25.0362 27.9984 25.0726 27.9984 25.109 27.9984C26.5452 27.9982 28.2268 27.998 29.6848 28.2864C31.1846 28.583 32.9448 29.2818 33.8618 31.0958C35.2328 33.808 35.2572 37.4132 35.0222 40.4054C34.9004 41.9566 34.6968 43.4572 34.5072 44.7484C34.4874 44.8836 34.4678 45.0158 34.4486 45.1448C36.0204 44.7566 37.5414 44.2284 38.8924 43.5316C40.9956 42.4466 42.569 41.0172 43.3956 39.178C45.2688 35.009 46 30.0584 46 25.7486C46 23.604 45.8188 21.6664 45.5286 20.117C45.226 18.5001 44.843 17.5185 44.5724 17.117C44.5724 17.117 44.5672 17.1096 44.555 17.0935C44.543 17.0777 44.526 17.0563 44.5032 17.029C44.4572 16.9738 44.3948 16.9032 44.3132 16.8166C44.1494 16.6424 43.9316 16.4274 43.6584 16.1736C43.1126 15.6663 42.3918 15.0462 41.537 14.3504C39.8298 12.9605 37.6464 11.3157 35.3832 9.74148C33.1156 8.16416 30.8036 6.68234 28.835 5.60396C27.849 5.0638 26.983 4.64358 26.273 4.36356C25.5122 4.06342 25.1154 4 25 4C24.8846 4 24.4878 4.06342 23.727 4.36356C23.0172 4.64358 22.151 5.0638 21.165 5.60396C19.1964 6.68234 16.8843 8.16416 14.6168 9.74148C12.3537 11.3157 10.1702 12.9605 8.46296 14.3504C7.6083 15.0462 6.88744 15.6663 6.34154 16.1736C6.06848 16.4274 5.85058 16.6424 5.68672 16.8166C5.60528 16.9032 5.54282 16.9738 5.49676 17.029C5.47402 17.0563 5.45706 17.0777 5.44498 17.0935C5.43272 17.1096 5.42768 17.117 5.42768 17.117C5.15704 17.5185 4.77406 18.5001 4.47134 20.117C4.18124 21.6664 4 23.604 4 25.7486C4 30.0584 4.7311 35.009 6.6045 39.178C7.43098 41.0172 9.00442 42.4466 11.1076 43.5316C12.4585 44.2284 13.9796 44.7566 15.5514 45.1448Z" fill="#EF3F40"/>
</svg>
