<svg viewBox="0 0 37 36" fill="none" xmlns="http://www.w3.org/2000/svg">
<path d="M34.9 6.39999C34.4 3.59999 32.2 1.39999 29.4 0.999994C21 -0.300006 14.9 -0.300006 6.39999 0.999994C3.59999 1.39999 1.39999 3.69999 0.999994 6.49999C-0.300006 14.9 -0.300006 21 0.999994 29.4C1.39999 32.3 3.69999 34.5 6.59999 35C15 36.3 21.1 36.3 29.6 35C32.4 34.6 34.6 32.4 35.1 29.6C36.4 21.2 36.3 15 34.9 6.39999ZM32 29.1C31.7 30.6 30.6 31.8 29 32C20.9 33.3 15.1 33.2 6.99999 32C5.39999 31.8 4.19999 30.5 3.89999 28.9C2.69999 20.8 2.69999 15 3.89999 6.89999C4.09999 5.29999 5.39999 4.09999 6.89999 3.89999C15 2.59999 20.9 2.59999 28.9 3.89999C30.4 4.09999 31.6 5.29999 31.9 6.89999C33.3 15.2 33.4 21.1 32 29.1Z" fill="#EF3F40"/>
<path d="M18 9C13 9 9 13 9 18C9 23 13 27 18 27C23 27 27 23 27 18C27 13 23 9 18 9ZM18 23.8C14.8 23.8 12.2 21.2 12.2 18C12.2 14.8 14.8 12.2 18 12.2C21.2 12.2 23.8 14.8 23.8 18C23.8 21.2 21.2 23.8 18 23.8Z" fill="#EF3F40"/>
<path d="M28 10C29.1046 10 30 9.10457 30 8C30 6.89543 29.1046 6 28 6C26.8954 6 26 6.89543 26 8C26 9.10457 26.8954 10 28 10Z" fill="#EF3F40"/>
</svg>
