<svg width="70" height="70" viewBox="0 0 70 70" fill="none" xmlns="http://www.w3.org/2000/svg">
<path fill-rule="evenodd" clip-rule="evenodd" d="M67.8302 12.4131C66.8577 6.96106 62.5788 2.67733 57.1329 1.89847C40.7953 -0.632823 28.9311 -0.632823 12.3991 1.89847C6.9532 2.67733 2.67431 7.15577 1.89633 12.6078C-0.632109 28.9638 -0.632109 40.8414 1.89633 57.1975C2.67431 62.8442 7.14769 67.128 12.7881 68.1015C29.1256 70.6328 40.9898 70.6328 57.5219 68.1015C62.9678 67.3227 67.2467 63.0389 68.2192 57.5869C70.7476 41.2309 70.5531 29.1586 67.8302 12.4131ZM63.5513 46.8776C60.4394 41.815 57.1329 36.7524 54.6045 33.637C57.9109 30.7163 60.6338 27.2114 63.5513 23.5118C64.3293 31.6898 64.3293 38.8943 63.5513 46.8776ZM13.3715 7.73992C29.1256 5.20862 40.6009 5.20862 56.1605 7.73992C59.0779 8.12935 61.4118 10.4659 61.9953 13.5814C62.1898 14.3602 62.1898 14.9444 62.3843 15.5285C61.6063 16.6968 60.6338 17.6704 59.8559 18.644C55.7715 23.7065 52.6596 27.6008 48.5752 31.1057C44.6853 34.2211 40.4064 36.9471 34.9605 39.6732C29.3201 36.9471 25.0412 34.2211 21.3458 31.1057C17.2614 27.6008 14.1495 23.9013 10.0651 18.644C9.09265 17.4757 8.31467 16.3074 7.34219 15.1391C7.34219 14.5549 7.53669 13.9708 7.53669 13.3866C8.12017 10.4659 10.4541 8.12935 13.3715 7.73992ZM6.36971 46.8776C5.59173 38.8943 5.59173 31.4951 6.36971 23.3171C9.28714 27.0167 12.2046 30.5216 15.3165 33.4423C12.9825 36.9472 9.48164 41.815 6.36971 46.8776ZM56.355 62.4548C40.6009 64.9861 29.3201 64.7914 13.566 62.4548C10.4541 62.0654 8.12017 59.5341 7.53669 56.6134C11.4266 49.6036 16.4835 41.815 19.7899 37.5313C23.6798 40.452 28.3477 43.5675 33.7935 46.0988L34.9605 46.6829L36.1275 46.0988C41.5733 43.5675 45.8522 40.452 49.7421 37.5313C53.0485 42.0097 58.1054 49.6036 61.9953 56.4186C61.9953 56.6134 61.9953 56.6134 61.9953 56.8081C61.6063 59.7288 59.2724 61.8706 56.355 62.4548Z" fill="#EF3F40"/>
</svg>
