<svg width="60" height="70" viewBox="0 0 60 70" fill="none" xmlns="http://www.w3.org/2000/svg">
<path fill-rule="evenodd" clip-rule="evenodd" d="M60 0C60.0002 20.532 59.9906 28.3358 59.9908 48.8678C59.9908 48.8678 59.9908 50.8226 59.9808 52.7432C59.971 54.6638 59.0492 57.3726 57.284 59.7146C55.427 62.1787 52.4736 64.0919 48.229 64.1349C45.362 64.1639 42.9934 63.6345 41.1094 62.6043C37.2842 60.5126 36.2556 56.86 36.4006 54.2214C36.4736 52.4792 37.3 50.3892 39.3478 48.8198C41.3802 47.2622 44.3248 46.4326 48.282 46.5436C50.7994 46.6142 52.092 45.638 52.8704 44.5474C53.7662 43.2926 54.0974 41.6764 54.0996 40.6752V17.8286L23.6128 23.5606V54.732C23.6128 54.732 23.6128 56.6868 23.5932 58.6074C23.5738 60.528 22.6616 63.2366 20.8964 65.5789C19.0395 68.0427 16.086 69.9559 11.8414 69.9989C8.80342 70.0297 6.32414 69.4329 4.39158 68.2797C0.826884 66.1527 -0.127256 62.6379 0.013129 60.0857C0.0859752 58.3433 0.912492 56.2532 2.9602 54.684C4.99272 53.1264 7.93732 52.2968 11.8945 52.4078C14.4119 52.4784 15.7044 51.502 16.4829 50.4116C17.3785 49.157 17.7098 47.541 17.7121 46.5398L17.7117 7.95095L60 0Z" fill="white"/>
</svg>
