<?xml version="1.0" encoding="UTF-8"?><svg id="uuid-afb4e54e-b397-41da-8cad-738f980f4fd6" xmlns="http://www.w3.org/2000/svg" viewBox="0 0 666.76 732.34"><defs><style>.uuid-9ce8d5fd-db2e-43ec-8e17-1ea5be49f921{fill:#fff;}</style></defs><g id="uuid-66e597df-29a4-4fbf-b3d6-19a430ebf215"><path class="uuid-9ce8d5fd-db2e-43ec-8e17-1ea5be49f921" d="m333.31,732.34c-16.18,0-32.38-1.19-48.54-3.58-42.64-6.3-83.17-20.62-120.46-42.57-37.3-21.95-69.49-50.43-95.69-84.65-27.14-35.44-46.61-75.5-57.88-119.05C-.54,438.94-2.95,394.47,3.58,350.31c6.3-42.64,20.63-83.17,42.57-120.46,21.95-37.3,50.43-69.49,84.64-95.69,35.44-27.14,75.5-46.61,119.05-57.88,79.51-20.63,163.49-11.23,236.45,26.46.04.02.08.04.12.06l52.78,27.54-22.97-88.62c-4.62-17.82,6.08-36.01,23.91-40.63,17.82-4.62,36.01,6.08,40.63,23.9l41.17,158.86c2.85,8.34,2.42,17.79-1.98,26.22-4.76,9.12-13.14,15.12-22.46,17.15l-160.13,41.5c-17.82,4.62-36.01-6.09-40.63-23.91-4.62-17.82,6.08-36.01,23.91-40.63l77.49-20.08-42.47-22.16c-58.34-30.12-125.49-37.63-189.09-21.13C124.24,177.63,38.43,323.42,75.27,465.79c31.04,119.99,139.57,199.81,258.19,199.82,22.07,0,44.46-2.76,66.79-8.54,121.34-31.43,203.48-140.79,199.73-265.93-.55-18.4,13.92-33.77,32.32-34.32,18.41-.56,33.77,13.92,34.32,32.32,2.23,74.31-21.04,148.3-65.52,208.35-22.21,29.98-49.03,55.81-79.71,76.77-31.76,21.69-66.89,37.62-104.43,47.34-27.62,7.15-55.61,10.73-83.65,10.73Z"/></g></svg>
