<svg width="50" height="50" viewBox="0 0 50 50" fill="none" xmlns="http://www.w3.org/2000/svg">
<path d="M50 15.6818C49.6 12.2727 47.2 9.77273 44.2 9.54545C43.8 9.54545 43.4 9.54545 43 9.54545V2.27273C43 0.909091 42.2 0 41 0C39.8 0 39 0.909091 39 2.27273V9.54545C38.6 9.54545 38.2 9.54545 37.8 9.54545C34.8 9.77273 32.6 12.5 32 15.6818C31.8 16.5909 31.8 17.5 32 18.1818C32.4 21.5909 34.8 24.0909 37.8 24.3182C38.2 24.3182 38.6 24.3182 39 24.3182V47.7273C39 49.0909 39.8 50 41 50C42.2 50 43 49.0909 43 47.7273V24.5455C43.4 24.5455 43.8 24.5455 44.2 24.5455C47.2 24.3182 49.4 21.5909 50 18.4091C50 17.5 50 16.5909 50 15.6818ZM46 17.5C45.8 19.0909 44.8 19.7727 44 20C42 20.2273 40.4 20.2273 38.4 20C37.6 20 36.6 19.0909 36.4 17.5C36.4 17.0455 36.4 16.8182 36.4 16.3636C36.6 14.7727 37.6 14.0909 38.4 13.8636C40.4 13.6364 42 13.6364 44 13.8636C44.8 13.8636 45.8 14.7727 46 16.3636C46 16.8182 46 17.2727 46 17.5Z" fill="#EF3F40"/>
<path d="M28.2 27.7273C27.8 27.7273 27.4 27.7273 27 27.7273V2.27273C27 0.909091 26.2 0 25 0C23.8 0 23 0.909091 23 2.27273V27.7273C22.6 27.7273 22.2 27.7273 21.8 27.7273C18.8 27.9545 16.6 30.6818 16 33.8636C15.8 34.7727 15.8 35.6818 16 36.3636C16.4 39.7727 18.8 42.2727 21.8 42.5C22.2 42.5 22.6 42.5 23 42.5V47.7273C23 49.0909 23.8 50 25 50C26.2 50 27 49.0909 27 47.7273V42.7273C27.4 42.7273 27.8 42.7273 28.2 42.7273C31.2 42.5 33.4 39.7727 34 36.5909C34.2 35.6818 34.2 34.7727 34 34.0909C33.4 30.6818 31 27.9545 28.2 27.7273ZM29.8 35.6818C29.6 37.2727 28.6 37.9545 27.8 38.1818C25.8 38.4091 24.2 38.4091 22.2 38.1818C21.4 38.1818 20.4 37.2727 20.2 35.6818C20.2 35.2273 20.2 35 20.2 34.5455C20.4 32.9545 21.4 32.2727 22.2 32.0455C24.2 31.8182 25.8 31.8182 27.8 32.0455C28.6 32.0455 29.6 32.9545 29.8 34.5455C30 35 30 35.4545 29.8 35.6818Z" fill="#EF3F40"/>
<path d="M17.8 11.1364C17.2 7.95455 15 5.22727 12 5C11.6 5 11.2 5 10.8 5C10.8 4.77273 10.8 4.77273 10.8 4.54545V2.27273C10.8 0.909091 10 0 8.8 0C7.6 0 6.8 0.909091 6.8 2.27273V4.54545C6.8 4.77273 6.8 4.77273 6.8 5C6.4 5 6 5 5.6 5C2.8 5.22727 0.6 7.95455 0 11.1364C0 12.0455 0 12.9545 0 13.8636C0.4 17.2727 2.8 19.7727 5.8 20C6.2 20 6.6 20 7 20C7 20.2273 7 20.2273 7 20.4545V47.7273C7 49.0909 7.8 50 9 50C10.2 50 11 49.0909 11 47.7273V20.4545C11 20.2273 11 20.2273 11 20C11.4 20 11.8 20 12.2 20C15.2 19.7727 17.4 17.0455 18 13.8636C18 12.9545 18 12.0455 17.8 11.1364ZM13.8 12.9545C13.6 14.5455 12.6 15.2273 11.8 15.4545C9.8 15.6818 8.2 15.6818 6.2 15.4545C5.4 15.4545 4.4 14.5455 4.2 12.9545C4.2 12.5 4.2 12.2727 4.2 11.8182C4.4 10.2273 5.4 9.54545 6.2 9.31818C8.2 9.09091 9.8 9.09091 11.8 9.31818C12.6 9.31818 13.6 10.2273 13.8 11.8182C13.8 12.2727 13.8 12.7273 13.8 12.9545Z" fill="#EF3F40"/>
</svg>
