<svg width="68" height="70" viewBox="0 0 68 70" fill="none" xmlns="http://www.w3.org/2000/svg">
<path fill-rule="evenodd" clip-rule="evenodd" d="M38.3747 34C38.3747 33.2 37.9708 32.4 37.9708 32.2C37.7688 31.8 37.5669 31.4 37.3649 31.2C36.9609 30.6 36.355 30 35.7491 29.4C34.9412 28.6 34.1333 27.6 33.3254 27C33.3254 22.4 31.7097 16.2 27.6702 10.8C23.0248 4.6 15.1479 0 3.02959 0H0V70H14.946L15.1479 67.2C15.1479 66.2 15.7538 64.4 16.7637 62.8C17.5716 61.4 18.7834 60.6 20.8032 61C24.0347 61.4 27.0643 61.4 29.488 60.2C32.1136 58.8 33.1235 56 33.3254 53.4L33.5274 51L22.8229 47.6L33.3254 43V38C33.5274 38 33.5274 38 33.7294 38C34.3353 38 35.1432 37.8 35.9511 37.6C36.355 37.4 36.9609 37.2 37.3649 36.8C37.7688 36 38.3747 35.2 38.3747 34Z" fill="white"/>
<path fill-rule="evenodd" clip-rule="evenodd" d="M65.6411 43H63.6213C62.8134 43 62.2075 43.4 61.8036 43.6C61.3996 43.8 61.1977 44.2 60.9957 44.2C60.7937 44.6 60.5917 44.8 60.3898 45.2C60.1878 45.8 59.7839 46.4 59.5819 47C59.3799 47.4 59.3799 47.8 59.1779 48.2C57.7641 43.4 55.9464 37.6 55.3405 35.4C55.3405 35 55.1385 34.4 54.5326 33.8C54.3306 33.4 53.9267 33 53.1188 32.8C52.3109 32.4 51.503 32.6 50.8971 32.8C49.8872 33.2 49.2813 34 49.0793 34.2C48.8773 34.6 48.6754 35 48.4734 35.2C47.8675 36.4 47.2616 38.4 46.6557 40.2C46.4537 40.8 46.2517 41.4 46.0497 42.2C45.6458 43.6 45.2418 45 44.8379 46.2V46.4C44.8379 46.4 44.8379 46.2 44.6359 46.2C44.434 45.8 44.232 45.4 43.828 45C43.6261 44.8 43.4241 44.4 43.0201 44.2C42.6162 44 42.0103 43.4 40.7985 43.4H38.7787C37.163 43.4 35.7491 44.8 35.7491 46.4C35.7491 48 37.163 49.4 38.7787 49.4H39.1827C39.1827 49.4 39.1827 49.6 39.3846 49.6C39.5866 50.2 39.9906 50.8 40.1925 51.4C40.3945 51.8 40.7985 52.4 41.0004 52.8C41.4044 53.2 41.8083 53.8 42.4142 54.2C43.2221 54.6 44.232 55.2 45.6458 54.8C46.8576 54.4 47.6655 53.6 48.0695 53C48.4734 52.4 48.8773 51.4 49.0793 50.8C49.4833 50 49.6852 49 50.0892 48.2C50.2912 47.2 50.6951 46.2 50.8971 45.2C52.3109 50.2 54.1286 55.6 54.7345 57.4C54.9365 57.8 55.1385 58.4 55.7444 59C56.1484 59.4 56.5523 59.6 57.3602 59.8C57.9661 60 58.572 59.8 59.1779 59.6C59.9858 59.2 60.5917 58.8 60.7937 58.4C60.9957 58 61.1977 57.8 61.3996 57.4C62.0055 56.4 62.6115 54.8 63.0154 53.4C63.2174 52.8 63.4194 52.4 63.6213 51.8C64.0253 50.8 64.2272 50 64.4292 49.4H64.6312C66.247 49.4 67.6608 48 67.6608 46.4C68.6706 44.4 67.2568 43 65.6411 43Z" fill="white"/>
</svg>
