<svg width="70" height="70" viewBox="0 0 70 70" fill="none" xmlns="http://www.w3.org/2000/svg">
<path fill-rule="evenodd" clip-rule="evenodd" d="M67.8302 12.4131C66.8577 6.96106 62.5788 2.67733 57.1329 1.89847C40.7953 -0.632823 28.9311 -0.632823 12.3991 1.89847C6.9532 2.67733 2.67431 7.15577 1.89633 12.6078C-0.632109 28.9638 -0.632109 40.8414 1.89633 57.1975C2.67431 62.8442 7.14769 67.128 12.7881 68.1015C29.1256 70.6328 40.9898 70.6328 57.5219 68.1015C62.9678 67.3227 67.2467 63.0389 68.2192 57.5869C70.7476 41.2309 70.5531 29.1586 67.8302 12.4131ZM62.1898 56.6134C61.6063 59.5341 59.4669 61.8707 56.355 62.2601C40.6009 64.7914 29.3201 64.5967 13.566 62.2601C10.4541 61.8707 8.12017 59.3394 7.53669 56.2239C5.20274 40.452 5.20274 29.1586 7.53669 13.3866C7.92568 10.2712 10.4541 7.93463 13.3715 7.5452C29.1256 5.01391 40.6009 5.01391 56.1605 7.5452C59.0779 7.93463 61.4118 10.2712 61.9953 13.3866C64.7182 29.548 64.9127 41.0362 62.1898 56.6134Z" fill="#EF3F40"/>
<path fill-rule="evenodd" clip-rule="evenodd" d="M43.5183 30.7163L50.5201 24.2907C52.465 22.5383 51.1036 19.4228 48.7696 19.4228C47.9917 19.4228 47.4082 19.6175 47.0192 20.2017L39.8229 26.6273L34.1825 20.5911C33.4045 19.8123 32.4321 19.4228 31.2651 19.4228H20.5679C17.2614 19.4228 15.3165 23.5118 17.6504 26.0431L28.1532 37.3366C28.1532 37.3366 27.9587 37.3366 27.9587 37.5313L20.9568 43.9569C19.0119 45.7093 20.3734 48.8248 22.9018 48.8248C23.6798 48.8248 24.2633 48.6301 24.8467 48.0459L31.8486 41.6203L32.0431 41.4256L37.8779 47.6565C38.6559 48.4353 39.6284 48.8248 40.7953 48.8248H51.4926C54.799 48.8248 56.7439 44.7358 54.41 42.2045L43.5183 30.7163ZM41.3788 42.7886L25.0412 25.2643H30.4871L46.8247 42.7886H41.3788Z" fill="#EF3F40"/>
</svg>
